<?xml version='1.0' encoding='utf-8'?>
<svg xmlns="http://www.w3.org/2000/svg" viewBox="-0.9999 -0.9999 69.0000 78.0000" width="400" height="452"><title>Durham University shield</title><path d="M65.8942 29.8163 65.8942 29.8163C66.5001 24.171 65.8942 12.6822 64.7834 6.54159 64.4805 5.05596 63.5717 3.27322 61.0473 2.67897 54.5847 1.29238 46.1027 0.500053 37.0147 0.500053 36.2069 6.73967 35.5001 15.5544 35.5001 25.5576L35.5001 29.4202 35.5001 29.6183 36.5098 29.7173C36.9137 29.7173 37.1157 30.0144 37.2167 30.5096 37.2167 30.9058 37.3176 31.5001 37.3176 31.5001 37.3176 31.5001 54.6857 31.401 65.8942 29.8163Z" stroke="#000000" stroke-width="0" stroke-linejoin="round" stroke-miterlimit="10" fill="#5F1D69" fill-rule="evenodd" /><path d="M31.5001 38.3474 31.5001 38.3474 30.5069 38.2448C30.1096 38.2448 29.911 38.0395 29.8117 37.5264 29.8117 37.1158 29.7124 36.5001 29.7124 36.5001L29.7124 36.5001C22.1644 36.5001 13.524 36.5001 2.50005 38.0395 3.98978 46.8658 13.7227 66.879 29.5138 75.5001 30.3083 68.829 31.5001 52.7158 31.5001 42.3501L31.5001 38.5527 31.5001 38.3474 31.5001 38.3474Z" stroke="#000000" stroke-width="0" stroke-linejoin="round" stroke-miterlimit="10" fill="#5F1D69" fill-rule="evenodd" /><path d="M37.3431 36.5001 37.3431 36.5001C45.1246 36.5001 54.0325 36.5001 65.5001 38.0395 63.9642 46.8658 53.8277 66.879 37.6502 75.5001 36.8311 68.829 35.5001 52.7158 35.5001 42.3501L35.6024 38.5527 35.6024 38.3474 36.5239 38.2448C36.9335 38.2448 37.1383 38.0395 37.2407 37.5264 37.2407 37.1158 37.3431 36.5001 37.3431 36.5001L37.3431 36.5001Z" stroke="#000000" stroke-width="0" stroke-linejoin="round" stroke-miterlimit="10" fill="#5F1D69" fill-rule="evenodd" /><path d="M16.5001 19.5001 16.5001 19.5001C16.5001 19.8334 16.5001 20.1667 16.6667 20.5001 16.6667 20.5001 17.0001 20.5001 17.1667 20.1667 17.3334 19.8334 17.3334 19.8334 17.5001 19.5001 17.3334 19.5001 16.6667 19.5001 16.5001 19.5001Z" stroke="#000000" stroke-width="0" stroke-linejoin="round" stroke-miterlimit="10" fill="#5F1D69" fill-rule="evenodd" /><path d="M20.1436 23.6438 20.1436 23.6438C20.1436 23.9492 19.7344 24.1527 19.6321 24.2545 19.5298 24.2545 19.5298 24.3563 19.5298 24.3563 19.4274 24.2545 19.5298 24.0509 19.5298 23.9492 19.5298 23.8474 19.4274 23.7456 19.3251 23.7456 19.1205 23.7456 18.5067 24.2545 18.9159 25.0689 18.8136 24.7635 18.9159 24.6617 19.0182 24.5599 19.0182 24.4581 19.1205 24.3563 19.1205 24.2545 19.2228 24.5599 19.2228 24.5599 19.2228 24.7635 19.2228 25.1707 19.0182 25.1707 19.1205 25.4761 19.1205 25.5779 19.1205 25.5779 19.2228 25.6797 19.2228 25.5779 19.2228 25.4761 19.2228 25.3743 19.2228 25.2725 19.4274 25.1707 19.4274 25.0689 19.4274 24.9671 19.4274 24.9671 19.4274 24.8653 19.5298 24.9671 19.6321 25.0689 19.6321 25.3743 19.6321 25.5779 19.4274 25.7815 19.4274 25.8833 19.4274 25.8833 19.3251 25.9851 19.3251 26.1887 19.3251 26.6977 19.0182 27.003 18.609 27.003 18.302 27.003 18.1997 27.003 17.9951 26.9012 17.9951 27.6138 17.0743 27.6138 17.0743 28.1228 17.0743 28.2246 17.1766 28.4282 17.2789 28.53 17.3812 28.6318 17.7905 28.7336 17.8928 28.9372 17.6882 28.9372 17.4836 28.9372 17.3812 29.1408 17.6882 29.2426 17.6882 29.4462 17.6882 29.6498 17.3812 29.548 17.2789 29.6498 17.1766 29.7515 17.0743 29.7515 17.1766 29.9551 17.0743 30.0569 16.972 29.9551 16.8697 29.8533 16.7674 29.8533 16.6651 29.8533 16.3581 30.0569 16.3581 30.1587 16.3581 30.3623 16.2558 30.4641 16.0512 30.4641 15.9489 30.6677 15.9489 30.7695 15.9489 30.8713 15.8466 30.7695 15.8466 30.6677 15.8466 30.4641 15.7443 30.3623 15.7443 30.2605 15.7443 30.1587L15.7443 30.1587C15.642 30.2605 15.5397 30.3623 15.335 30.2605 15.335 30.2605 15.2327 30.3623 15.2327 30.4641 15.1304 30.1587 15.2327 30.0569 15.335 30.0569 15.2327 29.9551 15.335 29.7515 15.4373 29.7515 15.4373 29.7515 15.4373 29.6498 15.4373 29.6498 15.335 29.6498 15.2327 29.6498 15.2327 29.548 15.1304 29.548 14.9258 29.6498 14.9258 29.7515 14.9258 29.548 15.0281 29.3444 15.1304 29.3444 15.335 29.1408 15.5397 29.039 15.642 29.2426 15.7443 29.2426 15.9489 29.3444 16.0512 29.3444 16.2558 29.3444 16.4604 29.2426 16.4604 29.1408 16.5628 29.039 16.5628 29.039 16.5628 29.039 16.6651 28.9372 16.6651 28.8354 16.4604 28.6318 16.3581 28.4282 15.9489 28.021 15.9489 27.8174 15.9489 27.3084 16.1535 27.1048 16.3581 26.9012L16.1535 26.9012C15.9489 26.9012 15.8466 26.6977 15.642 26.6977 15.4373 26.6977 15.335 26.9012 15.335 27.1048 15.335 27.3084 15.335 27.3084 15.335 27.4102 15.4373 27.6138 15.5397 27.7156 15.4373 27.8174 15.335 27.7156 15.1304 27.6138 14.9258 27.8174 14.8235 28.021 14.8235 28.1228 14.6189 28.2246 14.6189 28.021 14.3119 27.7156 14.005 28.021 13.9027 28.1228 13.9027 28.3264 13.6981 28.3264 13.5958 28.3264 13.5958 28.2246 13.4935 28.2246 13.3911 28.3264 13.3911 28.4282 13.2888 28.53 13.2888 28.3264 13.2888 28.2246 13.3911 28.1228 13.3911 28.021 13.3911 27.8174 13.4935 27.8174 13.4935 27.8174 13.4935 27.8174 13.3911 27.7156 13.2888 27.8174 13.0842 27.9192 12.9819 27.7156 12.8796 27.7156 12.8796 27.8174 12.7773 28.021 12.675 27.8174 12.8796 27.6138 12.8796 27.512 12.8796 27.4102 13.0842 27.3084 13.2888 27.3084 13.2888 27.3084 13.2888 27.3084 13.2888 27.3084 13.2888 27.3084 13.2888 27.3084 13.2888 27.3084 13.2888 27.2066 13.0842 27.2066 13.0842 27.003 12.9819 27.003 12.8796 27.003 12.7773 27.1048 12.8796 26.9012 12.9819 26.7995 13.1865 26.7995 13.1865 26.7995 13.2888 26.6977 13.3911 26.6977 13.4935 26.6977 13.5958 26.7995 13.5958 26.9012 13.8004 27.1048 14.1073 27.2066 14.3119 27.2066 14.5166 27.2066 14.6189 27.1048 14.6189 26.9012 14.6189 26.7995 14.3119 26.2905 14.3119 26.0869 14.3119 25.7815 14.7212 25.3743 15.0281 25.3743 15.8466 25.3743 16.0512 25.7815 16.1535 25.7815 16.4604 25.7815 16.4604 25.6797 16.5628 25.6797 16.1535 25.1707 15.9489 25.1707 15.5397 24.9671 15.335 24.7635 15.2327 24.5599 15.2327 24.3563 15.0281 24.4581 14.8235 24.7635 14.7212 24.9671 14.6189 24.8653 14.5166 24.7635 14.4142 24.7635 14.3119 24.7635 14.1073 24.9671 14.005 25.1707 14.005 24.9671 13.9027 24.7635 13.5958 24.7635 13.4935 24.7635 13.2888 24.8653 13.1865 24.9671 13.1865 25.0689 13.0842 25.1707 12.8796 25.0689 12.7773 25.1707 12.675 25.1707 12.675 25.4761 12.5727 25.1707 12.675 25.0689 12.675 24.9671 12.675 24.7635 12.675 24.7635 12.7773 24.6617L12.7773 24.6617C12.5727 24.6617 12.4703 24.6617 12.368 24.5599 12.2657 24.5599 12.1634 24.5599 12.0611 24.7635 12.1634 24.5599 12.2657 24.3563 12.368 24.3563 12.368 24.2545 12.5727 24.1527 12.675 24.1527 12.675 24.1527 12.675 24.1527 12.675 24.1527 12.5727 24.0509 12.5727 23.9492 12.5727 23.8474 12.4703 23.7456 12.368 23.8474 12.2657 23.8474 12.4703 23.6438 12.5727 23.6438 12.7773 23.6438 12.9819 23.6438 13.0842 23.7456 13.1865 23.8474 13.1865 24.0509 13.4935 24.0509 13.6981 24.0509 14.4142 24.0509 15.335 23.542 15.335 23.033 15.1304 23.033 15.1304 23.033 15.0281 23.033 14.7212 23.033 14.2096 23.4402 13.9027 23.4402 14.1073 23.2366 14.005 23.033 14.1073 22.9312 13.9027 22.9312 13.6981 23.033 13.3911 23.033 13.4935 22.9312 13.5958 22.7276 13.5958 22.6258 13.5958 22.524 13.5958 22.3204 13.1865 22.3204 13.1865 22.3204 13.0842 22.4222 12.9819 22.4222 12.8796 22.4222 12.675 22.3204 12.675 22.2186 12.5727 22.1168 12.4703 22.2186 12.2657 22.3204 12.368 22.1168 12.5727 22.015 12.675 21.9132 12.675 21.8114 12.7773 21.8114 12.8796 21.8114 12.8796 21.8114 12.8796 21.8114 12.8796 21.7096 12.7773 21.7096 12.5727 21.7096 12.5727 21.506 12.4703 21.4042 12.4703 21.4042 12.2657 21.4042 12.4703 21.2007 12.5727 21.3024 12.675 21.3024 12.8796 21.2007 12.9819 21.2007 13.0842 21.3024 13.0842 21.3024 13.0842 21.3024 13.0842 21.2007 13.0842 21.0989 13.0842 20.9971 13.1865 20.8953 13.0842 20.7935 13.0842 20.6917 12.9819 20.6917 13.1865 20.6917 13.2888 20.7935 13.3911 20.8953 13.5958 20.8953 13.6981 20.9971 13.6981 21.0989 13.6981 21.4042 13.3911 21.6078 13.9027 21.8114 14.1073 21.9132 14.3119 22.015 14.5166 22.1168 14.8235 22.1168 15.1304 22.2186 15.2327 22.2186 15.1304 22.1168 15.1304 22.015 15.0281 21.8114 15.1304 21.8114 15.335 21.9132 15.5397 21.9132 15.5397 21.7096 15.5397 21.7096 15.4373 21.6078 15.5397 21.6078 15.7443 21.6078 15.7443 21.6078 16.3581 21.7096 16.3581 21.4042 16.5628 20.9971 16.3581 20.9971 15.9489 21.0989 15.642 21.3024 15.642 21.2007 15.642 21.0989 15.642 20.9971 15.642 20.7935 15.7443 20.7935 15.8466 20.7935 15.8466 20.7935 15.9489 20.6917 16.0512 20.6917 16.1535 20.6917 16.3581 20.5899 16.2558 20.2845 16.2558 20.1827 16.1535 20.0809 15.9489 20.0809 15.9489 20.1827 15.8466 20.1827 15.7443 20.1827 15.642 20.1827 15.642 20.2845 15.642 20.3863 15.5397 20.3863 15.5397 20.1827 15.5397 20.1827 15.5397 20.1827 15.5397 20.0809 15.4373 20.0809 15.4373 19.9791 15.4373 19.9791 15.4373 19.9791 15.335 19.7755 15.4373 19.6737 15.642 19.6737 15.7443 19.6737 15.8466 19.5719 15.9489 19.5719 16.1535 19.4701 16.2558 19.4701 16.2558 19.3683 16.3581 19.1647 16.3581 19.1647 16.5628 19.1647 16.6651 19.1647 16.8697 19.1647 16.972 19.1647 17.2789 19.1647 17.5859 18.9611 17.4836 18.6557 17.6882 18.7575 17.7905 19.0629 17.6882 19.1647 17.7905 19.1647 18.0974 19.0629 18.1997 19.0629 18.1997 19.2665 17.9951 19.5719 17.8928 19.5719 17.9951 19.5719 18.302 19.5719 18.4043 19.5719 18.302 19.6737 18.1997 20.0809 18.0974 20.0809 18.302 20.1827 18.5067 20.2845 18.609 20.6917 18.4043 20.5899 18.302 20.6917 18.0974 20.6917 18.5067 21.0989 18.609 21.7096 18.7113 21.9132 18.609 21.8114 18.4043 21.7096 18.302 21.7096 18.4043 22.015 18.1997 22.4222 18.1997 22.6258 18.0974 22.524 17.9951 22.4222 17.8928 22.3204 17.8928 22.524 17.7905 22.8294 17.7905 23.1348 17.6882 23.033 17.5859 22.9312 17.4836 22.9312 17.2789 23.1348 17.2789 23.2366 17.2789 23.7456 17.2789 24.4581 17.5859 25.1707 17.6882 25.3743 17.8928 25.7815 17.9951 26.1887 17.9951 26.2905 18.0974 26.5959 18.302 26.6977 18.5067 26.6977 18.8136 26.6977 19.0182 26.4941 19.0182 26.1887 19.0182 25.6797 18.4043 25.3743 18.4043 24.4581 18.4043 23.9492 18.8136 23.6438 18.8136 23.2366 18.8136 22.9312 18.5067 23.1348 18.302 23.033 18.609 22.9312 18.8136 22.6258 19.0182 22.6258 19.3251 22.6258 19.3251 22.7276 19.3251 22.8294 19.3251 23.033 19.2228 23.2366 19.2228 23.2366 19.4274 23.033 19.6321 22.7276 19.6321 22.524 19.6321 22.3204 19.2228 22.015 19.3251 21.6078 19.3251 21.506 19.3251 21.506 19.3251 21.506 19.4274 22.015 20.2459 22.1168 20.2459 22.6258 20.2459 23.1348 19.8367 23.1348 19.5298 23.4402 19.8367 23.3384 20.1436 23.3384 20.1436 23.6438ZM14.9258 19.9791 14.9258 19.9791C14.9258 20.2845 14.9258 20.5899 15.2327 20.5899 15.5397 20.5899 16.0512 20.3863 16.1535 20.2845L16.1535 20.3863C16.0512 20.3863 15.4373 20.8953 14.9258 20.8953 14.6189 20.8953 14.5166 20.7935 14.5166 20.5899 14.5166 20.3863 14.7212 20.2845 14.9258 19.9791ZM16.3581 15.5001 16.3581 15.5001 0.500053 30.7695C11.7542 32.3983 21.6783 32.5001 29.5562 32.5001L29.6585 32.5001C29.6585 32.5001 29.7608 31.9911 29.7608 31.4821 29.8631 30.9731 30.0677 30.6677 30.4769 30.6677L31.5001 30.5659 31.5001 30.5659 16.3581 15.5001Z" stroke="#000000" stroke-width="0" stroke-linejoin="round" stroke-miterlimit="10" fill="#5F1D69" fill-rule="evenodd" /><path d="M27.8649 8.01133 27.8649 8.01133C27.8649 8.31584 27.461 8.51885 27.36 8.62035 27.36 8.72186 27.259 8.72186 27.259 8.82336 27.259 8.62035 27.36 8.51885 27.36 8.31584 27.36 8.21434 27.259 8.11283 27.0571 8.11283 26.8551 8.11283 26.2492 8.72186 26.5522 9.53389 26.5522 9.22938 26.6531 9.02637 26.7541 9.02637 26.7541 8.92486 26.8551 8.82336 26.8551 8.72186 26.9561 8.92486 26.9561 9.02637 26.9561 9.22938 26.9561 9.63539 26.6531 9.63539 26.8551 9.9399 26.8551 10.0414 26.8551 10.1429 26.9561 10.2444 26.9561 10.0414 26.9561 9.9399 26.9561 9.8384 26.9561 9.73689 27.158 9.63539 27.158 9.53389 27.158 9.43238 27.158 9.33088 27.158 9.33088 27.259 9.43238 27.36 9.53389 27.36 9.8384 27.36 10.1429 27.259 10.2444 27.158 10.3459 27.158 10.4474 27.158 10.5489 27.0571 10.6504 27.0571 11.2595 26.7541 11.564 26.3502 11.564 26.0473 11.564 25.8453 11.564 25.6434 11.4625 25.6434 12.2745 24.7346 12.173 24.7346 12.782 24.7346 12.8835 24.8356 13.0865 24.9365 13.188 25.0375 13.2895 25.4414 13.391 25.5424 13.594 25.3404 13.594 25.1385 13.6955 25.0375 13.797 25.3404 14.0001 25.3404 14.1016 25.4414 14.4061 25.0375 14.2031 24.9365 14.3046 24.8356 14.4061 24.7346 14.5076 24.8356 14.7106 24.7346 14.8121 24.6336 14.7106 24.5326 14.6091 24.4316 14.6091 24.2297 14.6091 24.0277 14.8121 23.9268 14.9136 23.9268 15.1166 23.8258 15.2181 23.6238 15.2181 23.5229 15.4211 23.5229 15.5226 23.5229 15.6241 23.4219 15.5226 23.4219 15.4211 23.4219 15.2181 23.3209 15.2181 23.3209 15.0151 23.3209 14.9136L23.3209 14.9136C23.2199 15.0151 23.1189 15.1166 22.917 15.0151 22.816 15.0151 22.715 15.1166 22.715 15.2181 22.715 14.9136 22.816 14.8121 22.816 14.8121 22.816 14.7106 22.917 14.5076 23.018 14.5076 23.018 14.4061 23.018 14.4061 23.018 14.4061 22.917 14.4061 22.816 14.4061 22.715 14.3046 22.6141 14.3046 22.5131 14.4061 22.5131 14.5076 22.5131 14.3046 22.6141 14.1016 22.715 14.0001 22.816 13.797 23.1189 13.797 23.2199 13.8985 23.3209 14.0001 23.5229 14.1016 23.7248 14.1016 23.9268 14.1016 24.0277 13.8985 24.1287 13.797 24.1287 13.797 24.1287 13.797 24.2297 13.6955 24.2297 13.594 24.3307 13.4925 24.1287 13.2895 23.9268 13.0865 23.5229 12.6805 23.5229 12.376 23.5229 11.97 23.7248 11.6655 23.9268 11.4625L23.8258 11.4625C23.5229 11.4625 23.5229 11.2595 23.2199 11.2595 23.018 11.2595 22.816 11.564 22.816 11.6655 22.816 11.8685 22.917 11.97 22.917 12.0715 23.018 12.173 23.1189 12.2745 23.018 12.4775 22.917 12.376 22.6141 12.2745 22.4121 12.376 22.4121 12.6805 22.3111 12.6805 22.2102 12.782 22.2102 12.6805 21.8062 12.376 21.5033 12.6805 21.4023 12.782 21.4023 12.8835 21.2004 12.8835 20.9984 12.8835 21.0994 12.8835 20.9984 12.8835 20.8974 12.985 20.7965 12.985 20.7965 13.188 20.7965 12.985 20.7965 12.782 20.8974 12.782 20.8974 12.6805 20.8974 12.4775 20.9984 12.376 20.8974 12.376 20.8974 12.376 20.8974 12.376 20.7965 12.4775 20.4935 12.4775 20.3926 12.376 20.3926 12.376 20.2916 12.4775 20.1906 12.579 20.1906 12.4775 20.2916 12.173 20.3926 12.173 20.3926 12.0715 20.5945 11.8685 20.7965 11.97 20.7965 11.8685 20.7965 11.8685 20.7965 11.8685 20.7965 11.8685 20.7965 11.8685 20.7965 11.8685 20.6955 11.8685 20.4935 11.8685 20.5945 11.564 20.3926 11.564 20.2916 11.564 20.2916 11.6655 20.2916 11.4625 20.4935 11.361 20.5945 11.361 20.6955 11.2595 20.7965 11.2595 20.8974 11.2595 20.9984 11.2595 21.0994 11.361 21.0994 11.4625 21.3014 11.6655 21.6043 11.767 21.9072 11.767 22.0082 11.767 22.2102 11.6655 22.2102 11.4625 22.2102 11.2595 21.9072 10.7519 21.9072 10.5489 21.9072 10.3459 22.3111 9.8384 22.5131 9.8384 23.4219 9.8384 23.6238 10.2444 23.8258 10.2444 24.0277 10.2444 24.1287 10.1429 24.1287 10.1429 23.7248 9.63539 23.5229 9.63539 23.1189 9.33088 22.917 9.22938 22.816 9.02637 22.816 8.82336 22.5131 8.82336 22.3111 9.12787 22.2102 9.33088 22.1092 9.33088 22.1092 9.22938 22.0082 9.22938 21.8062 9.22938 21.6043 9.43238 21.6043 9.63539 21.5033 9.43238 21.4023 9.22938 21.0994 9.22938 20.8974 9.22938 20.6955 9.33088 20.6955 9.43238 20.6955 9.43238 20.4935 9.63539 20.2916 9.53389 20.1906 9.63539 20.0896 9.63539 20.0896 9.9399 19.9887 9.63539 20.0896 9.53389 20.0896 9.43238 20.0896 9.22938 20.1906 9.12787 20.1906 9.12787L20.1906 9.02637C20.0896 9.12787 19.8877 9.12787 19.7867 9.02637 19.6857 8.92486 19.5847 9.02637 19.4838 9.12787 19.4838 8.92486 19.6857 8.82336 19.7867 8.72186 19.7867 8.62035 19.9887 8.62035 20.0896 8.62035 20.0896 8.51885 20.0896 8.51885 20.1906 8.51885 20.0896 8.51885 19.9887 8.31584 19.9887 8.21434 19.8877 8.11283 19.7867 8.21434 19.6857 8.21434 19.8877 8.01133 20.0896 8.01133 20.1906 8.01133 20.4935 8.01133 20.5945 8.11283 20.5945 8.21434 20.5945 8.41735 20.8974 8.51885 21.2004 8.51885 21.9072 8.51885 22.917 7.90983 22.816 7.40231 22.715 7.3008 22.715 7.3008 22.5131 7.3008 22.2102 7.3008 21.8062 7.80832 21.4023 7.80832 21.6043 7.60532 21.5033 7.40231 21.6043 7.1993 21.4023 7.1993 21.2004 7.40231 20.7965 7.3008 20.9984 7.3008 20.9984 6.99629 20.9984 6.89479 20.9984 6.79329 20.9984 6.69178 20.6955 6.69178 20.5945 6.69178 20.4935 6.69178 20.3926 6.69178 20.2916 6.69178 20.0896 6.69178 20.0896 6.48877 19.9887 6.38727 19.8877 6.48877 19.6857 6.59028 19.7867 6.38727 19.9887 6.28577 20.0896 6.28577 20.1906 6.08276 20.2916 6.08276 20.2916 6.08276 20.2916 5.98126 20.2916 6.08276 20.2916 5.98126 20.1906 5.98126 19.9887 5.98126 19.9887 5.67674 19.8877 5.67674 19.8877 5.57524 19.6857 5.67674 19.8877 5.47374 19.9887 5.47374 20.0896 5.57524 20.2916 5.37223 20.4935 5.47374 20.4935 5.57524 20.4935 5.47374 20.5945 5.47374 20.5945 5.47374 20.4935 5.37223 20.4935 5.16923 20.5945 5.16923 20.5945 4.96622 20.4935 4.96622 20.3926 4.96622 20.6955 4.96622 20.7965 4.96622 20.8974 5.06772 20.9984 5.06772 21.2004 5.27073 21.2004 5.37223 21.2004 5.67674 20.8974 5.87975 21.4023 6.08276 21.6043 6.18426 21.8062 6.28577 22.1092 6.38727 22.3111 6.48877 22.6141 6.59028 22.715 6.59028 22.715 6.38727 22.715 6.28577 22.5131 6.08276 22.715 6.08276 22.917 6.18426 23.1189 6.18426 23.1189 5.98126 23.1189 5.98126 23.018 5.87975 23.1189 5.87975 23.3209 5.87975 23.4219 5.87975 24.0277 5.87975 24.0277 5.57524 24.1287 5.16923 23.9268 5.27073 23.5229 5.27073 23.2199 5.47374 23.2199 5.37223 23.2199 5.27073 23.2199 5.16923 23.2199 4.96622 23.3209 4.96622 23.4219 4.96622 23.4219 4.96622 23.5229 4.96622 23.6238 4.96622 23.7248 4.96622 23.9268 4.76321 23.8258 4.4587 23.8258 4.3572 23.7248 4.25569 23.6238 4.25569 23.5229 4.3572 23.4219 4.25569 23.3209 4.3572 23.2199 4.3572 23.2199 4.4587 23.2199 4.5602 23.1189 4.5602 23.1189 4.3572 23.1189 4.3572 23.1189 4.3572 23.1189 4.25569 23.018 4.15419 23.018 4.15419 23.018 4.15419 23.018 4.15419 22.917 3.95118 23.018 3.84968 23.2199 3.84968 23.3209 3.74817 23.4219 3.74817 23.6238 3.74817 23.8258 3.64667 23.8258 3.54517 23.9268 3.44366 23.9268 3.34216 24.0277 3.24065 24.2297 3.24065 24.2297 3.24065 24.5326 3.24065 24.6336 3.24065 24.9365 3.24065 25.2395 3.03765 25.1385 2.73314 25.3404 2.83464 25.4414 3.13915 25.3404 3.24065 25.4414 3.24065 25.8453 3.24065 25.8453 3.13915 25.8453 3.34216 25.7444 3.64667 25.5424 3.74817 25.7444 3.74817 26.0473 3.74817 26.1483 3.64667 26.0473 3.84968 25.8453 4.25569 25.7444 4.25569 26.0473 4.3572 26.2492 4.5602 26.3502 4.86471 26.1483 4.76321 26.0473 4.86471 25.8453 4.86471 26.2492 5.27073 26.3502 5.98126 26.4512 6.18426 26.3502 6.08276 26.1483 5.98126 25.9463 5.98126 26.1483 6.28577 25.9463 6.69178 25.9463 6.89479 25.8453 6.79329 25.6434 6.79329 25.6434 6.69178 25.5424 6.79329 25.4414 7.0978 25.4414 7.50381 25.3404 7.40231 25.2395 7.3008 25.1385 7.1993 24.9365 7.50381 24.9365 7.60532 24.9365 8.11283 24.9365 8.82336 25.2395 9.53389 25.3404 9.8384 25.6434 10.2444 25.6434 10.6504 25.7444 10.7519 25.7444 11.0564 25.9463 11.2595 26.2492 11.2595 26.5522 11.2595 26.7541 11.0564 26.7541 10.7519 26.7541 10.2444 26.0473 9.8384 26.0473 8.92486 26.0473 8.31584 26.5522 8.01133 26.5522 7.60532 26.5522 7.3008 26.2492 7.50381 26.0473 7.3008 26.3502 7.3008 26.5522 6.89479 26.7541 6.89479 27.0571 6.99629 27.0571 7.0978 27.0571 7.1993 27.158 7.40231 26.9561 7.60532 26.9561 7.60532 27.259 7.40231 27.36 7.0978 27.36 6.89479 27.36 6.59028 26.9561 6.28577 27.0571 5.77825 27.0571 5.77825 27.0571 5.77825 27.0571 5.67674 27.259 6.28577 27.9658 6.38727 27.9658 6.99629 27.9658 7.50381 27.5619 7.40231 27.259 7.80832 27.5619 7.70682 27.8649 7.70682 27.8649 8.01133ZM22.5131 4.15419 22.5131 4.15419C22.4121 4.4587 22.4121 4.76321 22.816 4.76321 23.1189 4.76321 23.6238 4.5602 23.7248 4.4587L23.7248 4.5602C23.6238 4.66171 23.018 5.16923 22.5131 5.16923 22.2102 5.16923 22.1092 4.96622 22.1092 4.76321 22.1092 4.5602 22.3111 4.4587 22.5131 4.15419ZM13.1222 8.92486 13.1222 8.92486C13.1222 9.22938 12.6173 9.33088 12.6173 9.43238 12.5163 9.53389 12.5163 9.53389 12.5163 9.63539 12.4154 9.43238 12.5163 9.33088 12.5163 9.22938 12.5163 9.02637 12.4154 8.92486 12.3144 8.92486 12.0115 8.92486 11.5066 9.53389 11.8095 10.3459 11.8095 10.0414 11.9105 9.8384 11.9105 9.8384 12.0115 9.73689 12.0115 9.63539 12.0115 9.53389 12.1124 9.73689 12.2134 9.8384 12.2134 10.0414 12.2134 10.3459 11.9105 10.4474 12.0115 10.7519 12.1124 10.8534 12.1124 10.8534 12.1124 10.9549 12.1124 10.8534 12.1124 10.7519 12.2134 10.6504 12.2134 10.5489 12.3144 10.3459 12.3144 10.3459 12.4154 10.2444 12.4154 10.1429 12.3144 10.0414 12.5163 10.2444 12.5163 10.3459 12.5163 10.6504 12.5163 10.8534 12.4154 11.0564 12.4154 11.1579 12.3144 11.1579 12.3144 11.2595 12.3144 11.361 12.2134 11.97 11.9105 12.2745 11.5066 12.2745 11.3046 12.2745 11.1027 12.2745 10.9007 12.173 10.9007 12.985 10.0929 12.8835 10.0929 13.391 10.0929 13.4925 10.1939 13.6955 10.2948 13.797 10.3958 13.8985 10.6987 14.0001 10.7997 14.2031 10.5978 14.2031 10.3958 14.3046 10.2948 14.4061 10.5978 14.6091 10.5978 14.7106 10.6987 15.0151 10.3958 14.8121 10.1939 14.9136 10.0929 15.0151 10.0929 15.1166 10.0929 15.2181 9.99191 15.4211 9.89093 15.3196 9.89093 15.2181 9.68898 15.2181 9.588 15.2181 9.28507 15.4211 9.28507 15.5226 9.28507 15.7256 9.18409 15.8271 8.98214 15.8271 8.88116 16.0301 8.88116 16.0301 8.88116 16.2331 8.78018 16.1316 8.78018 16.0301 8.78018 15.8271 8.6792 15.7256 8.6792 15.6241 8.6792 15.5226L8.6792 15.5226C8.57823 15.5226 8.47725 15.6241 8.2753 15.5226 8.2753 15.6241 8.17432 15.7256 8.07334 15.8271 8.07334 15.5226 8.17432 15.4211 8.2753 15.3196 8.17432 15.3196 8.2753 15.1166 8.37627 15.0151 8.37627 15.0151 8.37627 15.0151 8.37627 15.0151 8.2753 15.0151 8.17432 14.9136 8.07334 14.9136 7.97237 14.9136 7.87139 15.0151 7.87139 15.1166 7.87139 14.9136 7.97237 14.7106 8.07334 14.6091 8.17432 14.4061 8.47725 14.4061 8.57823 14.5076 8.6792 14.6091 8.88116 14.7106 9.08311 14.7106 9.18409 14.7106 9.38605 14.5076 9.48702 14.5076 9.48702 14.4061 9.48702 14.4061 9.48702 14.3046 9.588 14.2031 9.588 14.1016 9.48702 13.8985 9.28507 13.6955 8.88116 13.2895 8.88116 13.0865 8.88116 12.579 9.08311 12.376 9.28507 12.173L9.08311 12.173C8.88116 12.173 8.78018 12.0715 8.57823 12.0715 8.37627 12.0715 8.17432 12.2745 8.17432 12.376 8.17432 12.579 8.2753 12.579 8.2753 12.782 8.37627 12.8835 8.47725 12.985 8.37627 13.188 8.2753 12.985 7.97237 12.985 7.87139 13.0865 7.77041 13.2895 7.66943 13.391 7.56846 13.4925 7.56846 13.2895 7.16455 13.0865 6.86162 13.2895 6.86162 13.391 6.86162 13.594 6.65966 13.594 6.45771 13.594 6.45771 13.4925 6.45771 13.4925 6.35673 13.594 6.25575 13.6955 6.25575 13.797 6.15478 13.594 6.25575 13.4925 6.35673 13.391 6.25575 13.2895 6.25575 13.188 6.35673 13.0865 6.35673 13.0865 6.35673 13.0865 6.35673 13.0865 6.25575 13.188 5.95282 13.188 5.95282 13.0865 5.85184 13.0865 5.75087 13.0865 5.64989 13.2895 5.64989 13.0865 5.75087 12.8835 5.85184 12.8835 5.85184 12.6805 6.0538 12.579 6.25575 12.6805 6.25575 12.579 6.25575 12.579 6.25575 12.579 6.25575 12.579 6.25575 12.579 6.25575 12.579 6.15478 12.579 5.95282 12.4775 6.0538 12.2745 5.85184 12.2745 5.75087 12.2745 5.75087 12.376 5.75087 12.173 5.95282 12.173 6.0538 12.0715 6.15478 12.0715 6.25575 11.97 6.35673 11.97 6.45771 11.97 6.55868 12.0715 6.55868 12.173 6.65966 12.376 6.96259 12.4775 7.26552 12.4775 7.46748 12.4775 7.56846 12.376 7.56846 12.173 7.56846 12.0715 7.26552 11.564 7.26552 11.2595 7.26552 11.0564 7.66943 10.6504 7.97237 10.6504 8.78018 10.6504 8.98214 10.9549 9.18409 10.9549 9.38605 10.9549 9.38605 10.9549 9.48702 10.8534 9.08311 10.4474 8.88116 10.4474 8.47725 10.1429 8.2753 10.0414 8.17432 9.8384 8.17432 9.63539 7.97237 9.63539 7.66943 9.9399 7.56846 10.1429 7.56846 10.0414 7.46748 10.0414 7.3665 10.0414 7.16455 10.0414 7.06357 10.2444 6.96259 10.4474 6.96259 10.2444 6.76064 10.0414 6.55868 10.0414 6.35673 10.0414 6.15478 10.0414 6.15478 10.1429 6.15478 10.2444 5.95282 10.4474 5.75087 10.3459 5.64989 10.4474 5.64989 10.4474 5.54891 10.6504 5.44794 10.3459 5.54891 10.3459 5.54891 10.2444 5.54891 10.0414 5.64989 9.9399 5.64989 9.9399L5.64989 9.8384C5.54891 9.9399 5.34696 9.9399 5.34696 9.8384 5.145 9.8384 5.145 9.8384 5.04403 9.9399 5.04403 9.73689 5.145 9.63539 5.24598 9.53389 5.34696 9.43238 5.44794 9.43238 5.54891 9.43238 5.64989 9.43238 5.64989 9.33088 5.64989 9.33088 5.54891 9.33088 5.44794 9.22938 5.44794 9.12787 5.34696 8.92486 5.24598 9.02637 5.145 9.02637 5.34696 8.92486 5.54891 8.82336 5.64989 8.92486 5.95282 8.82336 6.0538 8.92486 6.0538 9.12787 6.0538 9.33088 6.35673 9.33088 6.65966 9.33088 7.26552 9.33088 8.2753 8.72186 8.17432 8.21434 8.07334 8.21434 8.07334 8.21434 7.97237 8.21434 7.56846 8.21434 7.16455 8.62035 6.86162 8.62035 7.06357 8.41735 6.96259 8.31584 6.96259 8.11283 6.86162 8.11283 6.65966 8.21434 6.25575 8.21434 6.35673 8.11283 6.45771 7.90983 6.45771 7.80832 6.45771 7.70682 6.45771 7.50381 6.15478 7.50381 6.0538 7.60532 5.95282 7.60532 5.85184 7.60532 5.85184 7.60532 5.54891 7.60532 5.54891 7.40231 5.44794 7.3008 5.34696 7.40231 5.24598 7.50381 5.24598 7.3008 5.54891 7.1993 5.54891 7.1993 5.64989 7.0978 5.75087 6.99629 5.75087 6.99629 5.75087 6.99629 5.75087 6.99629 5.75087 6.99629 5.64989 6.89479 5.54891 6.89479 5.54891 6.69178 5.44794 6.59028 5.34696 6.59028 5.145 6.59028 5.44794 6.48877 5.54891 6.48877 5.54891 6.48877 5.75087 6.38727 5.95282 6.38727 5.95282 6.48877 5.95282 6.48877 6.0538 6.48877 6.0538 6.48877 5.95282 6.28577 5.95282 6.18426 6.0538 6.08276 6.0538 5.98126 5.95282 5.87975 5.85184 5.87975 6.15478 5.87975 6.25575 5.98126 6.35673 6.08276 6.45771 6.08276 6.55868 6.18426 6.55868 6.28577 6.55868 6.59028 6.35673 6.79329 6.86162 7.0978 7.06357 7.0978 7.26552 7.1993 7.46748 7.3008 7.77041 7.40231 7.97237 7.50381 8.17432 7.50381 8.07334 7.3008 8.07334 7.1993 7.97237 6.99629 8.07334 6.99629 8.2753 7.0978 8.47725 7.0978 8.47725 6.89479 8.47725 6.89479 8.37627 6.79329 8.47725 6.79329 8.6792 6.79329 8.6792 6.79329 9.28507 6.89479 9.38605 6.59028 9.48702 6.18426 9.28507 6.18426 8.88116 6.28577 8.57823 6.48877 8.57823 6.38727 8.57823 6.28577 8.57823 6.18426 8.57823 5.98126 8.6792 5.98126 8.78018 5.98126 8.78018 5.98126 8.88116 5.87975 8.98214 5.87975 9.08311 5.87975 9.28507 5.77825 9.18409 5.47374 9.18409 5.37223 9.08311 5.27073 8.88116 5.27073 8.88116 5.27073 8.78018 5.27073 8.6792 5.37223 8.57823 5.37223 8.57823 5.47374 8.57823 5.57524 8.47725 5.57524 8.47725 5.37223 8.47725 5.37223 8.47725 5.37223 8.47725 5.27073 8.37627 5.16923 8.37627 5.16923 8.37627 5.16923 8.37627 5.16923 8.2753 4.96622 8.37627 4.86471 8.57823 4.86471 8.6792 4.86471 8.78018 4.76321 8.88116 4.76321 9.08311 4.66171 9.18409 4.5602 9.28507 4.4587 9.28507 4.3572 9.28507 4.3572 9.48702 4.3572 9.588 4.3572 9.78995 4.3572 9.89093 4.3572 10.1939 4.3572 10.4968 4.05268 10.3958 3.84968 10.5978 3.84968 10.6987 4.15419 10.5978 4.3572 10.6987 4.3572 11.1027 4.25569 11.1027 4.25569 11.1027 4.4587 11.0017 4.66171 10.7997 4.76321 11.0017 4.76321 11.3046 4.76321 11.3046 4.66171 11.3046 4.86471 11.1027 5.27073 11.0017 5.27073 11.3046 5.37223 11.5066 5.47374 11.6075 5.87975 11.4056 5.77825 11.2036 5.87975 11.1027 5.87975 11.4056 6.28577 11.6075 6.99629 11.7085 7.0978 11.6075 7.0978 11.4056 6.99629 11.2036 6.89479 11.4056 7.3008 11.2036 7.60532 11.2036 7.80832 11.1027 7.70682 10.9007 7.70682 10.9007 7.60532 10.7997 7.70682 10.6987 8.01133 10.6987 8.41735 10.5978 8.31584 10.4968 8.21434 10.3958 8.11283 10.2948 8.31584 10.1939 8.41735 10.1939 9.02637 10.1939 9.73689 10.4968 10.3459 10.6987 10.6504 10.9007 11.0564 10.9007 11.361 11.0017 11.564 11.0017 11.8685 11.2036 11.97 11.5066 11.97 11.7085 11.97 11.9105 11.767 11.9105 11.4625 11.9105 10.9549 11.3046 10.6504 11.3046 9.73689 11.3046 9.12787 11.8095 8.82336 11.8095 8.51885 11.8095 8.11283 11.5066 8.31584 11.3046 8.21434 11.6075 8.11283 11.7085 7.80832 12.0115 7.80832 12.2134 7.80832 12.3144 8.01133 12.3144 8.11283 12.3144 8.21434 12.2134 8.41735 12.2134 8.51885 12.4154 8.31584 12.5163 7.90983 12.5163 7.80832 12.5163 7.50381 12.2134 7.1993 12.3144 6.79329 12.3144 6.69178 12.3144 6.69178 12.3144 6.69178 12.4154 7.1993 13.2232 7.3008 13.2232 7.90983 13.2232 8.41735 12.7183 8.31584 12.5163 8.62035 12.7183 8.51885 13.1222 8.62035 13.1222 8.92486ZM7.87139 5.16923 7.87139 5.16923C7.77041 5.47374 7.77041 5.77825 8.17432 5.77825 8.47725 5.77825 8.98214 5.57524 9.08311 5.47374L9.08311 5.57524C8.98214 5.57524 8.37627 6.08276 7.87139 6.08276 7.56846 6.08276 7.46748 5.98126 7.46748 5.77825 7.46748 5.57524 7.66943 5.47374 7.87139 5.16923ZM30.0864 0.500053 30.0864 0.500053C20.8974 0.500053 12.3144 1.31208 5.95282 2.73314 3.42839 3.34216 2.5196 5.16923 2.21666 6.69178 1.40885 10.8534 0.500053 19.0752 0.802984 27.5001 2.31764 26.079 16.6564 12.0715 16.6564 12.0715L31.5001 26.9925C31.5001 16.7407 30.7932 6.89479 30.0864 0.500053Z" stroke="#000000" stroke-width="0" stroke-linejoin="round" stroke-miterlimit="10" fill="#5F1D69" fill-rule="evenodd" /><path d="M9.66672 4.50005 9.66672 4.50005C9.50005 4.83339 9.50005 5.16672 9.66672 5.50005 9.66672 5.50005 10.0001 5.16672 10.1667 5.16672 10.3334 4.83339 10.3334 4.83339 10.5001 4.50005 10.3334 4.50005 9.66672 4.50005 9.66672 4.50005Z" stroke="#000000" stroke-width="0" stroke-linejoin="round" stroke-miterlimit="10" fill="#5F1D69" fill-rule="evenodd" /><path d="M23.6429 3.50005 23.6429 3.50005C23.5001 3.83339 23.6429 4.16672 23.6429 4.50005 23.7858 4.50005 24.0715 4.16672 24.2143 4.16672 24.3572 3.83339 24.3572 3.83339 24.5001 3.50005 24.3572 3.50005 23.6429 3.50005 23.6429 3.50005Z" stroke="#000000" stroke-width="0" stroke-linejoin="round" stroke-miterlimit="10" fill="#5F1D69" fill-rule="evenodd" /></svg>